<?xml version="1.0" encoding="UTF-8" standalone="no"?> <svg width="512" height="512" viewBox="0 0 512 512" fill="none" xmlns="http://www.w3.org/2000/svg">
<path fill-rule="evenodd" clip-rule="evenodd" d="M214.25 44.0316C227.758 41.3863 241.717 40 256 40C375.294 40 472 136.706 472 256C472 270.283 470.614 284.242 467.968 297.75C475.687 314.221 480 332.607 480 352C480 422.692 422.692 480 352 480C332.607 480 314.221 475.687 297.75 467.968C284.242 470.614 270.283 472 256 472C136.706 472 40 375.294 40 256C40 241.717 41.3863 227.758 44.0316 214.25C36.3128 197.779 32 179.393 32 160C32 89.3075 89.3075 32 160 32C179.393 32 197.779 36.3128 214.25 44.0316ZM358.105 178.281C329.149 121.66 263.263 110.203 215.299 127.252C187.48 137.14 165.022 158.735 157.911 185.754C150.231 214.934 161.93 244.928 191.882 264.454C206.661 274.088 222.389 279.087 236.381 282.311C244.216 284.117 253.953 285.8 262.207 287.227C266.808 288.022 270.948 288.738 274.043 289.351C285.072 291.536 292.137 293.811 297.062 296.779C301.075 299.197 304.385 302.476 306.856 309.121C308.484 313.501 308.228 316.357 307.668 318.274C307.049 320.393 305.526 323.089 302.2 326.016C295.153 332.218 282.155 337.358 266.756 337.358C227.469 337.358 207.476 324.548 202.711 309.016C198.276 294.564 182.7 286.362 167.919 290.698C153.139 295.034 144.752 310.265 149.186 324.718C165.376 377.488 222.22 392 266.756 392C293.267 392 320.434 383.482 339.582 366.632C359.994 348.669 370.754 321.059 359.374 290.452C352.507 271.982 340.88 258.998 326.379 250.26C312.789 242.071 297.761 238.297 285.14 235.797C278.654 234.512 273.403 233.632 268.518 232.812L268.517 232.812C262.103 231.737 256.32 230.767 249.201 229.126C238.448 226.648 229.897 223.563 222.881 218.99C216.308 214.705 213.621 210.703 212.504 208.031C211.399 205.391 211.189 202.564 212.029 199.372C213.843 192.48 221.071 183.34 234.39 178.606C263.263 168.344 295.169 177.387 308.125 202.72C315.026 216.216 331.81 221.686 345.612 214.937C359.413 208.188 365.007 191.777 358.105 178.281Z" fill="black"/>
</svg>
