<?xml version="1.0" encoding="UTF-8" standalone="no"?> <svg width="512" height="512" viewBox="0 0 512 512" fill="none" xmlns="http://www.w3.org/2000/svg">
<path fill-rule="evenodd" clip-rule="evenodd" d="M376 167.923C376 101.692 322.274 48 256 48C189.726 48 136 101.692 136 167.923C136 180.167 137.501 190.911 138.664 199.235C139.4 204.501 140 208.798 140 211.895C140 223.888 136 223.888 124 219.885C68 195.901 60 231.878 92 243.87C96.7867 245.664 101.126 247.19 105.044 248.567C127.322 256.399 136 259.45 136 279.847C132.8 334.212 62.6667 363.794 28 371.788C42.8784 389.356 64 395.773 92 395.773L104 423.755C125.333 419.758 172.8 417.359 192 439.745C211.2 462.131 242.667 465.062 256 463.73C269.333 465.062 300.8 462.131 320 439.745C339.2 417.359 386.667 419.758 408 423.755L420 395.773C448 395.773 469.122 389.356 484 371.788C449.333 363.794 379.2 334.212 376 279.847C376 259.45 384.678 256.399 406.956 248.567C410.874 247.19 415.213 245.664 420 243.87C452 231.878 444 195.901 388 219.885C376 223.888 372 223.888 372 211.895C372 208.798 372.6 204.501 373.336 199.236C374.499 190.911 376 180.167 376 167.923Z" fill="black"/>
</svg>
